<svg xmlns="http://www.w3.org/2000/svg" width="512" height="512" viewBox="0 0 512 512">
  <rect width="512" height="512" fill="#4CAF50" rx="100"/>
  <g fill="white">
    <path d="M256 80c-97.2 0-176 78.8-176 176s78.8 176 176 176 176-78.8 176-176S353.2 80 256 80zm0 32c79.4 0 144 64.6 144 144s-64.6 144-144 144S112 335.4 112 256s64.6-144 144-144z"/>
    <path d="M240 160v192h32V160h-32zm-48 80v112h32V240h-32zm96 0v112h32V240h-32z"/>
    <circle cx="256" cy="256" r="24" opacity="0.6"/>
  </g>
</svg>
